#N canvas 412 80 1474 1026 12;
#X obj -3 -2 cnv 19 1920 1920 empty empty empty 20 12 0 14 #e0e0e0 #404040 0;
#X msg 447 197 devices;
#X msg 632 203 close;
#X obj 396 264 print;
#X obj 460 261 sel 13 10;
#X obj 460 315 cyclone/zl group 100;
#X obj 460 339 list tosymbol;
#X obj 460 363 cyclone/fromsymbol;
#X floatatom 460 464 5 0 0 0 - - - 0;
#X msg 546 199 open 5;
#X obj 460 237 comport 5 9600;
#X obj 460 387 unpack f f;
#X floatatom 545 459 5 0 0 0 - - - 0;
#X obj 460 524 tgl 19 0 empty empty empty 0 -10 0 12 #fcfcfc #000000 #000000 0 1;
#X obj 460 492 > 60;
#X connect 1 0 10 0;
#X connect 2 0 10 0;
#X connect 4 0 5 0;
#X connect 4 2 5 0;
#X connect 5 0 6 0;
#X connect 6 0 7 0;
#X connect 7 0 11 0;
#X connect 8 0 14 0;
#X connect 9 0 10 0;
#X connect 10 0 3 0;
#X connect 10 0 4 0;
#X connect 11 0 8 0;
#X connect 11 1 12 0;
#X connect 14 0 13 0;
