#N canvas 130 43 1579 982 12;
#X obj 0 -1 cnv 19 1920 1920 empty empty empty 20 12 0 14 #e0e0e0 #404040 0;
#X msg 406 130 devices;
#X msg 632 203 close;
#X obj 295 306 print;
#X obj 460 261 sel 13 10;
#X obj 460 315 cyclone/zl group 100;
#X obj 460 339 list tosymbol;
#X obj 460 363 cyclone/fromsymbol;
#X floatatom 460 464 5 0 0 0 - - - 0;
#X msg 550 126 open 5;
#X obj 460 237 comport 5 9600;
#X obj 460 387 unpack f f;
#X floatatom 545 459 5 0 0 0 - - - 0;
#X obj 453 539 tgl 19 0 empty empty empty 0 -10 0 12 #fcfcfc #000000 #000000 0 1;
#X obj 460 492 > 60;
#X obj 1642 193 *~;
#X obj 1641 125 noise~;
#X obj 1287 831 dac~;
#X obj 1794 192 osc~;
#X obj 1663 352 *~ 0.25;
#X floatatom 1810 32 5 0 0 0 - - - 0;
#X obj 642 871 +~;
#X obj 829 767 osc~;
#X obj 836 848 *~;
#X obj 673 943 osc~;
#X floatatom 1045 714 5 0 0 0 - - - 0;
#X obj 706 1049 *~ 0.5;
#X obj 504 806 noise~;
#X obj 641 659 +~ 440;
#X obj 810 637 +~ 1;
#N canvas 0 22 450 278 (subpatch) 0;
#X array Notes 4 float 3;
#A 0 60 92 83 90;
#X coords 0 69 4 105 200 36 1 0 0;
#X restore 1371 87 graph;
#X obj 1389 453 array set Notes;
#X obj 1373 330 f;
#X obj 1439 336 + 1;
#X obj 1438 382 % 4;
#X obj 1325 269 t f b;
#X obj 890 174 tgl 19 0 empty empty empty 0 -10 0 12 #fcfcfc #000000 #000000 0 1;
#X msg 952 245 tempo \$1 permin;
#X floatatom 974 183 5 0 0 0 - - - 0;
#X floatatom 1317 220 5 0 0 0 - - - 0;
#X obj 922 353 f;
#X obj 987 353 + 1;
#X obj 922 377 % 4;
#X obj 917 430 array get Notes;
#X floatatom 919 479 5 0 0 0 - - - 0;
#X obj 965 534 mtof;
#X obj 1028 597 osc~;
#X obj 1262 139 tgl 19 0 empty empty empty 0 -10 0 12 #fcfcfc #000000 #000000 0 1;
#X floatatom 1313 127 5 0 0 0 - - - 0;
#X obj 1262 163 *;
#X obj 1138 561 mtof;
#X obj 1222 598 osc~;
#X obj 924 300 metro 0.5 120 permin;
#X floatatom 1233 516 5 0 0 0 - - - 0;
#X obj 1102 504 - 24;
#X obj 1507 605 pluck~;
#X obj 1457 740 *~ 0.5;
#X obj 1069 664 *~ 0.1;
#X obj 1222 622 *~ 0.1;
#X connect 1 0 10 0;
#X connect 2 0 10 0;
#X connect 4 0 5 0;
#X connect 4 2 5 0;
#X connect 5 0 6 0;
#X connect 6 0 7 0;
#X connect 7 0 11 0;
#X connect 8 0 14 0;
#X connect 8 0 28 0;
#X connect 9 0 10 0;
#X connect 10 0 3 0;
#X connect 10 0 4 0;
#X connect 11 0 8 0;
#X connect 11 1 12 0;
#X connect 12 0 29 0;
#X connect 14 0 13 0;
#X connect 15 0 19 0;
#X connect 16 0 15 0;
#X connect 18 0 15 1;
#X connect 20 0 18 0;
#X connect 21 0 24 0;
#X connect 22 0 23 0;
#X connect 23 0 21 1;
#X connect 24 0 26 0;
#X connect 25 0 23 1;
#X connect 28 0 21 0;
#X connect 29 0 22 0;
#X connect 32 0 33 0;
#X connect 32 0 31 1;
#X connect 33 0 34 0;
#X connect 34 0 32 1;
#X connect 35 0 31 0;
#X connect 35 1 32 0;
#X connect 36 0 52 0;
#X connect 37 0 52 0;
#X connect 38 0 37 0;
#X connect 39 0 35 0;
#X connect 40 0 41 0;
#X connect 40 0 42 0;
#X connect 41 0 40 1;
#X connect 42 0 43 0;
#X connect 43 0 44 0;
#X connect 44 0 45 0;
#X connect 44 0 54 0;
#X connect 44 0 55 0;
#X connect 45 0 46 0;
#X connect 46 0 57 0;
#X connect 47 0 49 0;
#X connect 48 0 49 1;
#X connect 49 0 39 0;
#X connect 50 0 51 0;
#X connect 51 0 58 0;
#X connect 52 0 40 0;
#X connect 54 0 50 0;
#X connect 54 0 53 0;
#X connect 55 0 56 0;
#X connect 56 0 17 0;
#X connect 56 0 17 1;
#X connect 57 0 17 0;
#X connect 57 0 17 1;
#X connect 58 0 17 0;
#X connect 58 0 17 1;
