#N canvas 0 38 1512 916 12;
#X obj -3 -2 cnv 19 1920 1920 empty empty empty 20 12 0 14 #e0e0e0 #404040 0;
#X msg 406 130 devices;
#X msg 632 203 close;
#X obj 295 306 print;
#X obj 460 261 sel 13 10;
#X obj 460 315 cyclone/zl group 100;
#X obj 460 339 list tosymbol;
#X obj 460 363 cyclone/fromsymbol;
#X floatatom 337 459 5 0 0 0 - - - 0;
#X floatatom 398 458 5 0 0 0 - - - 0;
#X obj 453 539 tgl 19 0 empty empty empty 0 -10 0 12 #fcfcfc #000000 #000000 0 1;
#X obj 460 492 > 60;
#X obj 1642 193 *~;
#X obj 1641 125 noise~;
#X obj 709 1195 dac~;
#X obj 1794 192 osc~;
#X obj 1663 352 *~ 0.25;
#X floatatom 1810 32 5 0 0 0 - - - 0;
#X obj 642 871 +~;
#X obj 829 767 osc~;
#X obj 836 848 *~;
#X obj 673 943 osc~;
#X floatatom 1045 697 5 0 0 0 - - - 0;
#X obj 706 1049 *~ 0.5;
#X obj 504 806 noise~;
#X obj 641 659 +~ 440;
#X msg 489 82 devicename /dev/tty.usbmodem11401;
#X obj 460 237 comport;
#X msg 550 126 baud 9600;
#X obj 810 637 *~ 10;
#X floatatom 454 459 5 0 0 0 - - - 0;
#X floatatom 509 459 5 0 0 0 - - - 0;
#X floatatom 556 458 5 0 0 0 - - - 0;
#X floatatom 601 457 5 0 0 0 - - - 0;
#X obj 459 386 unpack f f f f f f f f f f f f;
#X floatatom 664 458 5 0 0 0 - - - 0;
#X floatatom 731 457 5 0 0 0 - - - 0;
#X floatatom 794 458 5 0 0 0 - - - 0;
#X floatatom 863 458 5 0 0 0 - - - 0;
#X floatatom 926 457 5 0 0 0 - - - 0;
#X floatatom 992 454 5 0 0 0 - - - 0;
#X connect 1 0 27 0;
#X connect 2 0 27 0;
#X connect 4 0 5 0;
#X connect 4 2 5 0;
#X connect 5 0 6 0;
#X connect 6 0 7 0;
#X connect 7 0 34 0;
#X connect 8 0 11 0;
#X connect 8 0 25 0;
#X connect 9 0 29 0;
#X connect 11 0 10 0;
#X connect 12 0 16 0;
#X connect 13 0 12 0;
#X connect 15 0 12 1;
#X connect 17 0 15 0;
#X connect 18 0 21 0;
#X connect 19 0 20 0;
#X connect 20 0 18 1;
#X connect 21 0 23 0;
#X connect 22 0 20 1;
#X connect 23 0 14 0;
#X connect 23 0 14 1;
#X connect 25 0 18 0;
#X connect 26 0 27 0;
#X connect 27 0 3 0;
#X connect 27 0 4 0;
#X connect 28 0 27 0;
#X connect 29 0 19 0;
#X connect 34 0 8 0;
#X connect 34 1 9 0;
#X connect 34 2 30 0;
#X connect 34 3 31 0;
#X connect 34 4 32 0;
#X connect 34 5 33 0;
#X connect 34 6 35 0;
#X connect 34 7 36 0;
#X connect 34 8 37 0;
#X connect 34 9 38 0;
#X connect 34 10 39 0;
#X connect 34 11 40 0;
