#N canvas 319 38 1512 916 12;
#X obj 0 -1 cnv 19 1920 1920 empty empty empty 20 12 0 14 #e0e0e0 #404040 0;
#X obj 295 306 print;
#X obj 460 261 sel 13 10;
#X obj 460 315 cyclone/zl group 100;
#X obj 460 339 list tosymbol;
#X obj 460 363 cyclone/fromsymbol;
#X floatatom 460 464 5 0 0 0 - - - 0;
#X floatatom 507 467 5 0 0 0 - - - 0;
#X obj 1956 203 *~;
#X obj 1955 135 noise~;
#X obj 1287 831 dac~;
#X obj 2108 202 osc~;
#X obj 1977 362 *~ 0.25;
#X floatatom 2076 44 5 0 0 0 - - - 0;
#X obj 453 864 +~;
#X obj 640 760 osc~;
#X obj 647 841 *~;
#X obj 484 936 osc~;
#X floatatom 713 794 5 0 0 0 - - - 0;
#X obj 517 1042 *~ 0.5;
#X obj 286 659 noise~;
#X obj 452 652 +~ 440;
#X obj 621 630 +~ 1;
#N canvas 0 22 450 278 (subpatch) 0;
#X array Notes 4 float 3;
#A 0 76 67 60 72;
#X coords 0 69 4 105 200 36 1 0 0;
#X restore 1676 726 graph;
#X obj 1373 330 f;
#X obj 1439 336 + 1;
#X obj 1438 382 % 4;
#X obj 1316 290 t f b;
#X obj 890 171 tgl 19 0 empty empty empty 0 -10 0 12 #fcfcfc #000000 #000000 0 1;
#X msg 952 245 tempo \$1 permin;
#X floatatom 974 183 5 0 0 0 - - - 0;
#X floatatom 1261 223 5 0 0 0 - - - 0;
#X obj 922 353 f;
#X obj 987 353 + 1;
#X obj 922 377 % 4;
#X obj 917 430 array get Notes;
#X floatatom 919 479 5 0 0 0 - - - 0;
#X obj 965 534 mtof;
#X obj 1028 597 osc~;
#X floatatom 1281 75 5 0 0 0 - - - 0;
#X obj 1263 163 *;
#X obj 1138 551 mtof;
#X obj 460 386 unpack f f f f f f f f f f f f;
#X msg 406 130 devices;
#X msg 632 203 close;
#X msg 489 82 devicename /dev/tty.usbmodem11401;
#X msg 549 126 baud 9600;
#X obj 460 237 comport;
#X obj 1260 127 tgl 19 0 empty empty empty 0 -10 0 12 #fcfcfc #000000 #000000 0 1;
#X floatatom 1364 83 5 0 0 0 - - - 0;
#X obj 1330 154 *;
#X obj 1327 118 tgl 19 0 empty empty empty 0 -10 0 12 #fcfcfc #000000 #000000 0 1;
#X floatatom 1436 71 5 0 0 0 - - - 0;
#X obj 1418 159 *;
#X obj 1415 123 tgl 19 0 empty empty empty 0 -10 0 12 #fcfcfc #000000 #000000 0 1;
#X floatatom 1519 79 5 0 0 0 - - - 0;
#X obj 1485 150 *;
#X obj 1482 114 tgl 19 0 empty empty empty 0 -10 0 12 #fcfcfc #000000 #000000 0 1;
#X floatatom 1611 63 5 0 0 0 - - - 0;
#X obj 1593 185 *;
#X obj 1590 149 tgl 19 0 empty empty empty 0 -10 0 12 #fcfcfc #000000 #000000 0 1;
#X floatatom 1694 71 5 0 0 0 - - - 0;
#X obj 1669 175 *;
#X obj 1666 139 tgl 19 0 empty empty empty 0 -10 0 12 #fcfcfc #000000 #000000 0 1;
#X floatatom 1785 63 5 0 0 0 - - - 0;
#X obj 1767 185 *;
#X obj 1764 149 tgl 19 0 empty empty empty 0 -10 0 12 #fcfcfc #000000 #000000 0 1;
#X floatatom 1868 71 5 0 0 0 - - - 0;
#X obj 1834 176 *;
#X obj 1831 140 tgl 19 0 empty empty empty 0 -10 0 12 #fcfcfc #000000 #000000 0 1;
#X floatatom 571 465 5 0 0 0 - - - 0;
#X floatatom 618 468 5 0 0 0 - - - 0;
#X floatatom 687 467 5 0 0 0 - - - 0;
#X floatatom 734 470 5 0 0 0 - - - 0;
#X floatatom 790 472 5 0 0 0 - - - 0;
#X floatatom 843 475 5 0 0 0 - - - 0;
#X obj 1221 584 phasor~;
#X obj 1222 622 expr~ $v1 > 0.5;
#X obj 1233 501 hsl 162 19 -36 1 0 0 empty empty empty -2 -10 0 12 #fcfcfc #000000 #000000 0 1;
#X floatatom 1330 178 5 0 0 0 - - - 0;
#X floatatom 1418 183 5 0 0 0 - - - 0;
#X floatatom 1485 174 5 0 0 0 - - - 0;
#X floatatom 1593 209 5 0 0 0 - - - 0;
#X floatatom 1669 199 5 0 0 0 - - - 0;
#X floatatom 1767 209 5 0 0 0 - - - 0;
#X floatatom 1834 200 5 0 0 0 - - - 0;
#X obj 1664 290 t f b;
#X obj 1701 334 f;
#X obj 1767 340 + 1;
#X obj 1766 386 % 4;
#X obj 1389 453 array set Notes;
#X obj 1717 457 array set Notes1;
#N canvas 0 65 1512 945 (subpatch) 0;
#X array Notes1 4 float 3;
#A 0 40 70 46 43;
#X coords 0 69 4 105 200 36 1 0 0;
#X restore 1668 879 graph;
#X obj 1441 515 tgl 19 0 empty empty empty 0 -10 0 12 #fcfcfc #000000 #000000 0 1;
#X msg 1503 589 tempo \$1 permin;
#X floatatom 1525 527 5 0 0 0 - - - 0;
#X obj 1473 697 f;
#X obj 1538 697 + 1;
#X obj 1473 721 % 4;
#X floatatom 1470 823 5 0 0 0 - - - 0;
#X obj 1516 878 mtof;
#X obj 1579 941 osc~;
#X obj 1468 774 array get Notes1;
#X obj 924 300 metro 0.5 150 permin;
#X obj 1475 644 metro 0.25 150 permin;
#X obj 1237 1103 freeverb~;
#X msg 971 146 128;
#X msg 1277 28 60;
#X msg 1353 20 67;
#X obj 456 490 < 1000;
#X obj 507 490 < 1000;
#X obj 567 491 < 1000;
#X obj 618 491 < 1000;
#X obj 683 493 < 1000;
#X obj 734 493 < 1000;
#X obj 792 498 < 1000;
#X obj 847 502 < 1000;
#X obj 1069 664 *~ 0.25;
#X obj 1620 1008 *~ 0.25;
#X msg 1457 1157 damping \$0;
#X msg 1346 1192 width \$1;
#X msg 1343 1156 roomsize \$1;
#X floatatom 214 460 5 0 0 0 - - - 0;
#X floatatom 261 463 5 0 0 0 - - - 0;
#X floatatom 325 461 5 0 0 0 - - - 0;
#X floatatom 372 464 5 0 0 0 - - - 0;
#X obj 210 486 < 1000;
#X obj 261 486 < 1000;
#X obj 321 487 < 1000;
#X obj 372 487 < 1000;
#X msg 1439 25 76;
#X msg 1515 17 72;
#X msg 1615 18 40;
#X msg 1691 10 43;
#X msg 1777 15 46;
#X msg 1853 7 70;
#X obj 1142 452 - 24;
#X obj 1227 684 *~ 0;
#X connect 2 0 3 0;
#X connect 2 2 3 0;
#X connect 3 0 4 0;
#X connect 4 0 5 0;
#X connect 5 0 42 0;
#X connect 6 0 109 0;
#X connect 7 0 110 0;
#X connect 8 0 12 0;
#X connect 9 0 8 0;
#X connect 11 0 8 1;
#X connect 13 0 11 0;
#X connect 14 0 17 0;
#X connect 15 0 16 0;
#X connect 16 0 14 1;
#X connect 17 0 19 0;
#X connect 18 0 16 1;
#X connect 21 0 14 0;
#X connect 22 0 15 0;
#X connect 24 0 25 0;
#X connect 24 0 90 1;
#X connect 25 0 26 0;
#X connect 26 0 24 1;
#X connect 27 0 90 0;
#X connect 27 1 24 0;
#X connect 28 0 103 0;
#X connect 29 0 103 0;
#X connect 30 0 29 0;
#X connect 31 0 27 0;
#X connect 32 0 33 0;
#X connect 32 0 34 0;
#X connect 33 0 32 1;
#X connect 34 0 35 0;
#X connect 35 0 36 0;
#X connect 36 0 37 0;
#X connect 37 0 38 0;
#X connect 38 0 117 0;
#X connect 39 0 40 1;
#X connect 40 0 31 0;
#X connect 41 0 76 0;
#X connect 42 0 6 0;
#X connect 42 1 7 0;
#X connect 42 2 70 0;
#X connect 42 3 71 0;
#X connect 42 4 72 0;
#X connect 42 5 73 0;
#X connect 42 6 74 0;
#X connect 42 7 75 0;
#X connect 42 8 122 0;
#X connect 42 9 123 0;
#X connect 42 10 124 0;
#X connect 42 11 125 0;
#X connect 42 11 136 0;
#X connect 43 0 47 0;
#X connect 44 0 47 0;
#X connect 45 0 47 0;
#X connect 46 0 47 0;
#X connect 47 0 1 0;
#X connect 47 0 2 0;
#X connect 48 0 40 0;
#X connect 49 0 50 1;
#X connect 50 0 79 0;
#X connect 51 0 50 0;
#X connect 52 0 53 1;
#X connect 53 0 80 0;
#X connect 54 0 53 0;
#X connect 55 0 56 1;
#X connect 56 0 81 0;
#X connect 57 0 56 0;
#X connect 58 0 59 1;
#X connect 59 0 82 0;
#X connect 60 0 59 0;
#X connect 61 0 62 1;
#X connect 62 0 83 0;
#X connect 63 0 62 0;
#X connect 64 0 65 1;
#X connect 65 0 84 0;
#X connect 66 0 65 0;
#X connect 67 0 68 1;
#X connect 68 0 85 0;
#X connect 69 0 68 0;
#X connect 70 0 111 0;
#X connect 71 0 112 0;
#X connect 72 0 113 0;
#X connect 73 0 114 0;
#X connect 74 0 115 0;
#X connect 75 0 116 0;
#X connect 76 0 77 0;
#X connect 77 0 137 0;
#X connect 78 0 41 0;
#X connect 79 0 27 0;
#X connect 80 0 27 0;
#X connect 81 0 27 0;
#X connect 82 0 86 0;
#X connect 83 0 86 0;
#X connect 84 0 86 0;
#X connect 85 0 86 0;
#X connect 86 0 91 0;
#X connect 86 1 87 0;
#X connect 87 0 88 0;
#X connect 87 0 91 1;
#X connect 88 0 89 0;
#X connect 89 0 87 1;
#X connect 93 0 104 0;
#X connect 94 0 104 0;
#X connect 95 0 94 0;
#X connect 96 0 97 0;
#X connect 96 0 98 0;
#X connect 97 0 96 1;
#X connect 98 0 102 0;
#X connect 99 0 100 0;
#X connect 100 0 101 0;
#X connect 101 0 118 0;
#X connect 102 0 99 0;
#X connect 103 0 32 0;
#X connect 104 0 96 0;
#X connect 105 0 10 0;
#X connect 105 1 10 1;
#X connect 106 0 30 0;
#X connect 106 0 95 0;
#X connect 107 0 39 0;
#X connect 108 0 49 0;
#X connect 109 0 48 0;
#X connect 110 0 51 0;
#X connect 111 0 54 0;
#X connect 112 0 57 0;
#X connect 113 0 60 0;
#X connect 114 0 63 0;
#X connect 115 0 66 0;
#X connect 116 0 69 0;
#X connect 117 0 105 0;
#X connect 117 0 105 1;
#X connect 118 0 105 0;
#X connect 118 0 105 1;
#X connect 119 0 105 0;
#X connect 119 0 105 1;
#X connect 120 0 105 0;
#X connect 120 0 105 1;
#X connect 121 0 105 0;
#X connect 121 0 105 1;
#X connect 122 0 126 0;
#X connect 123 0 127 0;
#X connect 124 0 128 0;
#X connect 125 0 129 0;
#X connect 126 0 48 0;
#X connect 127 0 54 0;
#X connect 128 0 60 0;
#X connect 129 0 66 0;
#X connect 130 0 52 0;
#X connect 131 0 55 0;
#X connect 132 0 58 0;
#X connect 133 0 61 0;
#X connect 134 0 64 0;
#X connect 135 0 67 0;
#X connect 137 0 10 0;
#X connect 137 0 10 1;
