#N canvas 155 148 1920 966 12;
#X obj 321 673 *~ 0.25;
#X obj 322 727 dac~;
#X floatatom 1488 71 5 0 0 0 - - - 0;
#X obj 1435 116 metro 450;
#X obj 1437 153 s kick;
#X obj 319 276 bng 19 250 50 0 empty empty empty 0 -10 0 12 #fcfcfc #000000 #000000;
#X obj 319 218 r kick;
#X obj 1432 77 tgl 19 0 empty empty empty 0 -10 0 12 #fcfcfc #000000 #000000 0 1;
#N canvas 128 0 736 956 kick 0;
#X obj 274 417 phasor~;
#X obj 274 462 expr~ $v1 > 0.5;
#X obj 118 570 *~;
#X floatatom 417 178 5 0 0 0 - - - 0;
#X obj 275 210 f 250;
#N canvas 655 211 1242 658 vol 0;
#X obj 67 168 vline~;
#X obj 73 209 *~;
#X obj 65 74 inlet;
#X obj 70 245 outlet~;
#X msg 64 116 0.5 \, 1 5 \, 0.5 60 5 \, 0 \$1 65;
#X connect 0 0 1 0;
#X connect 0 0 1 1;
#X connect 1 0 3 0;
#X connect 2 0 4 0;
#X connect 4 0 0 0;
#X restore 29 348 pd vol env;
#N canvas 597 169 1242 658 pitch 0;
#X obj 67 168 vline~;
#X obj 66 216 *~;
#X obj 65 74 inlet;
#X obj 67 401 outlet~;
#X msg 64 116 1 \, 0.5 5 \, 0 \$1 5;
#X obj 66 258 *~ 80;
#X obj 67 344 mtof~;
#X obj 67 302 +~ 29;
#X connect 0 0 1 0;
#X connect 0 0 1 1;
#X connect 1 0 5 0;
#X connect 2 0 4 0;
#X connect 4 0 0 0;
#X connect 5 0 7 0;
#X connect 6 0 3 0;
#X connect 7 0 6 0;
#X restore 275 321 pd pitch env;
#X obj 274 364 *~ 1;
#X floatatom 471 346 5 0 0 1 Pitch\ Scale - - 0;
#X obj 274 511 vcf~ 0.5;
#X obj 477 434 *~ 1.5;
#X floatatom 536 415 5 0 0 1 Filter\ Scale - - 0;
#X obj 167 460 noise~;
#X floatatom 532 487 5 0 0 1 Sine\ Scale - - 0;
#X obj 475 518 *~ 0.75;
#X obj 460 569 osc~;
#X obj 470 297 inlet;
#X obj 536 381 inlet;
#X obj 538 452 inlet;
#X obj 418 123 inlet;
#X obj 250 133 inlet;
#X obj 107 630 outlet~;
#X connect 0 0 1 0;
#X connect 1 0 9 0;
#X connect 2 0 21 0;
#X connect 3 0 4 1;
#X connect 4 0 5 0;
#X connect 4 0 6 0;
#X connect 5 0 2 0;
#X connect 6 0 7 0;
#X connect 6 0 10 0;
#X connect 7 0 0 0;
#X connect 7 0 14 0;
#X connect 8 0 7 1;
#X connect 9 1 2 1;
#X connect 10 0 9 1;
#X connect 11 0 10 1;
#X connect 12 0 9 0;
#X connect 13 0 14 1;
#X connect 14 0 15 0;
#X connect 15 0 2 1;
#X connect 16 0 8 0;
#X connect 17 0 11 0;
#X connect 18 0 13 0;
#X connect 19 0 3 0;
#X connect 20 0 4 0;
#X restore 421 410 pd kick;
#X f 73;
#X floatatom 548 351 5 0 0 1 Decay - - 0;
#X floatatom 675 349 5 0 0 1 Pitch\ Scale - - 0;
#X floatatom 802 350 5 0 0 1 Filter\ Scale - - 0;
#X floatatom 929 349 5 0 0 1 Sine\ Scale - - 0;
#X obj 548 180 vsl 19 162 10 2000 0 0 empty kick_decay empty 0 -9 0 12 #e3c6ff #000000 #000000 0 1;
#X obj 675 178 vsl 19 162 0.1 3 1 0 empty kick_pitch empty 0 -9 0 12 #e3c6ff #000000 #000000 0 1;
#X obj 802 177 vsl 19 162 0.1 3 1 0 empty kick_filter empty 0 -9 0 12 #e3c6ff #000000 #000000 0 1;
#X obj 929 176 vsl 19 162 0.1 3 1 0 empty kick_sine empty 0 -9 0 12 #e3c6ff #000000 #000000 0 1;
#X connect 0 0 1 0;
#X connect 0 0 1 1;
#X connect 2 0 3 1;
#X connect 3 0 4 0;
#X connect 5 0 8 0;
#X connect 6 0 5 0;
#X connect 7 0 3 0;
#X connect 8 0 0 0;
#X connect 9 0 8 1;
#X connect 10 0 8 2;
#X connect 11 0 8 3;
#X connect 12 0 8 4;
#X connect 13 0 9 0;
#X connect 14 0 10 0;
#X connect 15 0 11 0;
#X connect 16 0 12 0;
